<svg width="20" height="20" viewBox="0 0 20 20" xmlns="http://www.w3.org/2000/svg"
   ><path d="m14 4.7a2 2 0 0 1 2 2v12.793a.5.5.0 0 1-.854.353L12.293 16.993A1 1 0 0 0 11.586 16.7H2a2 2 0 0 1-2-2v-8a2 2 0 0 1 2-2z"
     /><g transform="translate(7.5821932,-13.279071)"><path d="m-1.5821932 14.279071a1 1 0 0 0-1 1v8a1 1 0 0 0 1 1h9.586a2 2 0 0 1 1.414.586l2.0000002 2v-11.586a1 1 0 0 0-1-1zm12.0000002-1a2 2 0 0 1 2 2v12.793a.5.5.0 0 1-.854.353l-2.8530002-2.853a1 1 0 0 0-.707-.293h-9.586a2 2 0 0 1-2-2v-8a2 2 0 0 1 2-2z" style="fill:#666;fill-opacity:1" /><path d="m1.4178068 19.279071a1 1 0 1 1-2 0 1 1 0 0 1 2 0zm4 0a1 1 0 1 1-2 0 1 1 0 0 1 2 0zm4 0a1 1 0 1 1-2 0 1 1 0 0 1 2 0z"
       /><path style="fill:#fff;stroke-width:.053939" d="M10.342806 25.758034C9.1348964 24.55478 9.0501547 24.489175 8.4831454 24.31833 8.346407 24.277129 7.8975217 24.272077 3.2498257 24.259426l-5.0837522-.01384-.1483323-.07081C-2.2112671 24.06546-2.3450626 23.932385-2.4602143 23.699391l-.1018889-.206158v-4.208642-4.208642l.065067-.161618c.077578-.192693.3024395-.430878.4935071-.52275.069884-.0336.2033833-.07213.2966646-.08562.2454624-.0355 12.0423285-.03296 12.2617025.0026.33233.05392.615763.264271.754281.559781l.07201.153632.007 4.207243c.0038 2.313984.0038 4.962311.0 5.885171l-.007 1.677928zM.80888647 20.211641c.19289343-.07245.42978583-.29487.51958613-.487835.12128-.260611.1257831-.608783.011223-.867766-.076777-.173565-.284695-.385686-.476233-.485857-.15196104-.07947-.18022158-.08486-.44543513-.08486-.26588348.0-.29320871.0052-.44737389.08584-.21280401.111247-.42055153.337506-.49665403.540908-.11710031.312979-.0634647.708906.13086555.966024.28569093.377998.74610673.505545 1.20402147.333547zm4.02512913-.01069c.2059702-.09391.4152218-.303287.5100997-.510393.06464-.141101.075518-.199538.076089-.408762C5.42083 19.053083 5.4144343 19.024658 5.318982 18.831514 5.2049065 18.6007 5.0772973 18.474214 4.8418471 18.358579 4.709776 18.293715 4.6618075 18.285326 4.4229993 18.285326c-.2356774.0-.2890007.009-.4227511.07175-.2142897.100455-.3835593.266176-.4874717.477252-.08121.164962-.087649.197894-.087649.448303.0.304335.045663.442021.215221.648944.2756604.336407.791404.452797 1.1936671.269379zm3.9492985.0217C8.9850193 20.143091 9.149128 20.010571 9.261764 19.836302 9.5995889 19.31362 9.3994039 18.616123 8.8377712 18.358999 8.6404971 18.268684 8.3384208 18.247006 8.1283143 18.308085 7.676283 18.439494 7.3682405 18.898709 7.4127059 19.37488c.0391.418714.3567441.788803.7656873.892109.1451113.03666.4576755.01375.6049209-.04433z"
       /></g></svg>
